<svg version="1.1" xmlns="http://www.w3.org/2000/svg" xmlns:xlink="http://www.w3.org/1999/xlink" width="100" height="100" viewBox="0,0,256,256"><g fill="#bb2828" fill-rule="nonzero" stroke="none" stroke-width="1" stroke-linecap="butt" stroke-linejoin="miter" stroke-miterlimit="10" stroke-dasharray="" stroke-dashoffset="0" font-family="none" font-weight="none" font-size="none" text-anchor="none" style="mix-blend-mode: normal"><g transform="translate(0.01111,3.99592) scale(0.44444,0.5)"><path d="M184.1,38.2c9.9,8.9 10.7,24 1.8,33.9l-72,80c-4.4,4.9 -10.6,7.8 -17.2,7.9c-6.6,0.1 -12.9,-2.4 -17.6,-7l-40.1,-40c-9.4,-9.4 -9.4,-24.6 0,-33.9c9.4,-9.3 24.6,-9.4 33.9,0l22.1,22.1l55.1,-61.2c8.9,-9.9 24,-10.7 33.9,-1.8zM184.1,198.2c9.9,8.9 10.7,24 1.8,33.9l-72,80c-4.4,4.9 -10.6,7.8 -17.2,7.9c-6.6,0.1 -12.9,-2.4 -17.6,-7l-40.1,-40c-9.4,-9.4 -9.4,-24.6 0,-33.9c9.4,-9.3 24.6,-9.4 33.9,0l22.1,22.1l55.1,-61.2c8.9,-9.9 24,-10.7 33.9,-1.8zM256,96c0,-17.7 14.3,-32 32,-32h224c17.7,0 32,14.3 32,32c0,17.7 -14.3,32 -32,32h-224c-17.7,0 -32,-14.3 -32,-32zM256,256c0,-17.7 14.3,-32 32,-32h224c17.7,0 32,14.3 32,32c0,17.7 -14.3,32 -32,32h-224c-17.7,0 -32,-14.3 -32,-32zM192,416c0,-17.7 14.3,-32 32,-32h288c17.7,0 32,14.3 32,32c0,17.7 -14.3,32 -32,32h-288c-17.7,0 -32,-14.3 -32,-32zM80,464c-26.5,0 -48,-21.5 -48,-48c0,-26.5 21.5,-48 48,-48c26.5,0 48,21.5 48,48c0,26.5 -21.5,48 -48,48z"></path></g></g></svg>